# xmcd
#
# Track frame offsets: 
#        150
#        17487
#        30392
#        45700
#        57099
#        73848
#        86092
#        99578
#        111430
#        123295
#        145868
#
# Disc length: 2642 seconds
#
# Revision: 0
# Processed by: cddbd v1.5.2PL0 Copyright (c) Steve Scherf et al.
# Submitted via: ExactAudioCopy v0.99pb5
#
DISCID=910a500b
DTITLE=Hank Brake - Maybe I'd Best Leave Well Enough Alone
DYEAR=1999
DGENRE=Country
TTITLE0=I Can Only Love You Like A Man
TTITLE1=Someone Had To teach You
TTITLE2=What I Do The Best
TTITLE3=Back In The Swing Of Things
TTITLE4=If That's The Way You Want It
TTITLE5=Definite Possibillities
TTITLE6=You Lied To Me
TTITLE7=I'd Like To Have A Problem Like That
TTITLE8=Home Grown Love
TTITLE9=Maybe I'd best Leave Well Enough Alone
TTITLE10=Data
EXTD=
EXTT0=
EXTT1=
EXTT2=
EXTT3=
EXTT4=
EXTT5=
EXTT6=
EXTT7=
EXTT8=
EXTT9=
EXTT10=
PLAYORDER=
